<svg id="Capa_1" enable-background="new 0 0 512 512" height="512" viewBox="0 0 512 512" width="512" xmlns="http://www.w3.org/2000/svg"><g><g><g><g><g><g><g><g><g><g><g><g><g><g><g><g><g><g><g><g><g><g><circle cx="256" cy="256" fill="#ff636e" r="256"/></g></g></g></g></g></g></g></g></g></g></g></g></g></g></g></g></g></g></g></g></g><path d="m512 256c0-5.547-.177-11.052-.524-16.511l-97.488-97.488-364.762 179.212 190.263 190.263c5.459.347 10.964.524 16.511.524 141.385 0 256-114.615 256-256z" fill="#f03049"/><g><path d="m413.988 369.999h-315.976c0-26.944-21.842-48.786-48.786-48.786v-130.426c26.944 0 48.786-21.842 48.786-48.786h315.976c0 26.943 21.842 48.786 48.785 48.786v130.427c-26.943-.001-48.785 21.841-48.785 48.785z" fill="#ffd400"/></g><g><path d="m413.988 142.001h-154.029v227.998h154.029c0-26.944 21.842-48.786 48.786-48.786v-130.426c-26.944 0-48.786-21.842-48.786-48.786z" fill="#fdba12"/></g><g><path d="m186.467 295.27-30.59-81.289h23.766l19.986 58.621 20.109-58.621h23.765l-30.712 81.289z" fill="#555a66"/><path d="m249.479 295.27v-81.289h20.962v81.289z" fill="#555a66"/><g fill="#414952"><path d="m259.959 295.27v-81.289h10.481v81.289z"/><path d="m285.066 295.27v-81.289h40.705c18.281 0 28.274 12.309 28.274 27.056 0 14.625-9.993 26.934-28.274 26.934h-19.743v27.299zm47.652-54.233c0-5.606-4.144-8.775-9.749-8.775h-16.941v17.428h16.941c5.605 0 9.749-3.169 9.749-8.653z"/></g></g><g><g><path d="m105.677 214.528 13.475 27.304 30.131 4.378-21.803 21.252 5.147 30.01-26.95-14.169-26.95 14.169 5.147-30.01-21.803-21.252 30.131-4.378z" fill="#fff"/></g><g><path d="m406.323 214.528 13.475 27.304 30.131 4.378-21.803 21.252 5.147 30.01-26.95-14.169-26.95 14.169 5.147-30.01-21.803-21.252 30.131-4.378z" fill="#e9edf5"/></g></g></g></svg>